.
 
http://www.scenetime.com    -   SceneTime [ We been having it ] !!!


How come you press harder on a remote control when you know the battery is dead? so you better seed to get speed ;)

        Seed back for speed


...................................NFO:.................................................
 ______ ______                         ______              ___________
 ___  /____  /___  ______________      ___  /________________  /___  /_____________________ ______________ _
 __  __ \_  /_  / / /  _ \_  ___/________  __ \_  ___/  __ \  __/_  __ \  _ \_  ___/_  ___/ __  ___/_  __ `/
 _  /_/ /  / / /_/ //  __/(__  )_/_____/  /_/ /  /   / /_/ / /_ _  / / /  __/  /   _(__  )___  /   _  /_/ /
 /_.___//_/  \__,_/ \___//____/        /_.___//_/    \____/\__/ /_/ /_/\___//_/    /____/_(_)_/    _\__, /
                                                                                                   /____/
                                     ___________                    ___________
                              ______ ___  /__  /____  _____________ __  /__<  /
                              _  __ `/_  /__  /__  / / /  ___/  __ `/  __/_  /
                              / /_/ /_  / _  / _  /_/ // /__ / /_/ // /_ _  /
                              \__,_/ /_/  /_/  _\__, / \___/ \__,_/ \__/ /_/
                                               /____/






General
RELEASE DATE 18/6/2011
Complete name                    : Sucker.Punch.2011.BDRIP_allycat.B-BRG.avi
Format                           : AVI
Format/Info                      : Audio Video Interleave
File size                        : 612 MiB
Duration                         : 1h 49mn
Overall bit rate                 : 780 Kbps
Writing application              : Lavf52.39.0

Video
ID                               : 0
Format                           : MPEG-4 Visual
Codec ID                         : DIV3
Codec ID/Hint                    : DivX 3 Low
Duration                         : 1h 49mn
Bit rate                         : 640 Kbps
Width                            : 640 pixels
Height                           : 480 pixels
Display aspect ratio             : 4:3
Frame rate                       : 23.976 fps
Color space                      : YUV
Chroma subsampling               : 4:2:0
Bit depth                        : 8 bits
Compression mode                 : Lossy
Bits/(Pixel*Frame)               : 0.087
Stream size                      : 502 MiB (82%)

Audio
ID                               : 1
Format                           : MPEG Audio
Format version                   : Version 1
Format profile                   : Layer 3
Mode                             : Joint stereo
Mode extension                   : MS Stereo
Codec ID                         : 55
Codec ID/Hint                    : MP3
Duration                         : 1h 49mn
Bit rate mode                    : Constant
Bit rate                         : 128 Kbps
Channel(s)                       : 2 channels
Sampling rate                    : 44.1 KHz
Compression mode                 : Lossy
Stream size                      : 100 MiB (16%)
Alignment                        : Aligned on interleaves
Interleave, duration             : 26 ms (0.63 video frame)
Interleave, preload duration     : 104 ms
Writing library                  : LAME3.98.2